<?xml version="1.0" standalone="no"?>
<!DOCTYPE svg PUBLIC "-//W3C//DTD SVG 20010904//EN"
 "http://www.w3.org/TR/2001/REC-SVG-20010904/DTD/svg10.dtd">
<svg width="350" version="1.0" xmlns="http://www.w3.org/2000/svg"
   viewBox="0 0 525.000000 452.000000"
 preserveAspectRatio="xMidYMid meet">
<metadata>
Created by potrace 1.16, written by Peter Selinger 2001-2019
</metadata>
<g transform="translate(0.000000,452.000000) scale(0.100000,-0.100000)"
fill="#589ac7" stroke="none">
<path d="M2891 4505 c-193 -54 -337 -208 -373 -397 l-12 -66 -27 46 c-37 65
-128 148 -196 180 -50 23 -71 27 -153 27 -86 0 -101 -3 -162 -32 -71 -34 -145
-95 -178 -148 l-21 -33 -102 -4 c-85 -2 -111 -7 -159 -30 -102 -47 -176 -135
-209 -246 -11 -38 -19 -47 -68 -72 -67 -33 -93 -60 -120 -120 -31 -68 -28 -83
12 -75 48 11 81 31 111 65 22 27 26 28 26 12 0 -58 -13 -84 -49 -99 -41 -17
-96 -66 -116 -103 -7 -14 -15 -41 -16 -60 -3 -29 0 -35 16 -38 33 -4 98 40
122 83 l23 40 0 -71 0 -71 -39 -18 c-46 -20 -106 -79 -120 -118 -17 -44 -14
-97 4 -97 46 0 103 52 134 120 l20 45 -2 -89 -2 -89 -45 -24 c-62 -32 -97 -76
-111 -140 -15 -67 -6 -78 46 -54 50 23 83 58 100 108 14 37 14 36 15 -52 l0
-90 -37 -20 c-84 -45 -132 -111 -133 -182 0 -38 -1 -38 47 -18 52 22 72 42 99
100 l24 50 0 -82 c0 -70 -3 -86 -20 -103 -11 -11 -24 -20 -30 -20 -15 0 -80
-61 -95 -89 -7 -14 -16 -48 -20 -74 -6 -40 -5 -47 9 -47 44 0 114 60 140 120
14 33 15 27 16 -126 0 -122 -4 -170 -15 -197 -26 -64 -15 -164 24 -216 l18
-23 20 28 c43 62 57 164 28 214 -10 17 -14 56 -15 119 l0 95 26 -52 c42 -84
134 -135 134 -74 0 76 -59 162 -130 192 l-30 12 0 87 c0 84 0 85 16 56 29 -56
101 -115 140 -115 4 0 4 23 1 52 -8 66 -47 123 -109 157 l-48 26 0 85 0 85 21
-40 c28 -53 65 -92 100 -104 31 -11 39 -6 39 23 0 71 -54 153 -124 191 l-36
20 1 95 c1 83 2 90 11 57 13 -47 83 -124 122 -133 l29 -7 -6 53 c-8 70 -45
123 -107 158 l-50 27 1 95 c0 60 4 86 8 70 16 -52 42 -90 78 -115 50 -34 73
-33 73 3 0 74 -57 166 -120 192 -30 12 -30 14 -30 86 0 76 13 106 24 53 3 -17
15 -44 27 -60 21 -31 92 -73 103 -62 11 11 6 83 -8 116 -7 18 -39 55 -69 82
l-57 50 15 63 c29 122 85 199 180 244 50 23 73 28 138 28 100 0 102 -15 8 -63
-25 -13 -58 -39 -74 -59 -30 -38 -52 -116 -37 -132 22 -22 103 28 142 89 18
28 20 28 14 5 -3 -14 -6 -46 -6 -71 0 -38 -4 -48 -24 -57 -39 -18 -96 -73
-117 -113 -17 -35 -27 -109 -14 -109 3 0 22 9 43 19 46 24 76 56 96 101 15 35
15 35 16 -52 l0 -87 -32 -17 c-71 -35 -110 -88 -123 -161 -9 -58 -1 -67 43
-44 44 22 62 42 90 96 l21 40 1 -82 0 -82 -57 -38 c-64 -42 -103 -103 -103
-160 0 -40 12 -48 47 -29 41 21 81 66 97 111 15 40 15 40 13 -54 l-2 -93 -36
-18 c-68 -35 -119 -115 -119 -187 0 -57 99 2 136 80 l24 52 0 -87 0 -86 -37
-23 c-87 -52 -123 -106 -123 -186 0 -37 8 -40 48 -19 37 20 78 64 96 106 15
35 15 35 15 -50 l1 -85 -59 -38 c-66 -42 -101 -97 -101 -160 0 -29 4 -37 18
-37 35 0 93 51 118 103 l24 52 0 -91 0 -92 -31 -13 c-71 -29 -111 -80 -124
-156 -9 -54 -2 -65 33 -52 39 15 82 58 103 104 l19 40 0 -155 c0 -110 -4 -167
-15 -195 -8 -22 -14 -58 -14 -80 -1 -47 43 -149 61 -143 46 16 73 162 44 232
-11 25 -16 67 -16 125 l0 86 19 -40 c23 -51 84 -105 118 -105 25 0 25 2 20 46
-7 62 -50 122 -110 152 l-47 25 1 96 c0 86 2 93 12 63 17 -47 65 -102 101
-117 38 -16 46 -12 46 24 0 49 -47 127 -97 160 -26 17 -50 31 -55 31 -4 0 -8
42 -8 93 l0 92 24 -51 c25 -53 63 -88 109 -99 26 -7 27 -5 27 29 0 73 -57 153
-127 178 l-33 12 0 86 c1 84 1 84 17 55 23 -44 53 -74 95 -96 21 -10 40 -19
44 -19 4 0 4 22 2 50 -7 68 -45 123 -108 155 l-50 25 0 92 0 92 26 -52 c19
-37 38 -59 68 -77 63 -37 70 -34 63 26 -8 66 -38 111 -104 155 l-53 35 0 77
c1 76 1 77 17 47 23 -45 64 -86 100 -101 44 -19 43 -19 43 24 -1 74 -46 139
-129 184 -31 17 -31 17 -31 100 1 83 1 83 16 48 8 -19 25 -45 37 -58 20 -22
87 -62 103 -62 3 0 4 24 2 54 -6 68 -40 116 -109 154 l-49 27 1 90 c0 87 0 89
14 57 25 -58 57 -94 99 -112 22 -10 44 -16 49 -13 12 7 -1 90 -19 124 -17 33
-70 79 -106 91 -33 12 -35 32 -12 121 22 87 46 128 104 180 102 92 251 115
367 57 70 -35 140 -106 177 -179 l26 -51 -34 0 c-22 0 -52 -12 -86 -35 -29
-20 -82 -43 -117 -52 -35 -8 -78 -25 -96 -37 -33 -23 -77 -89 -77 -118 0 -37
100 -11 152 39 l28 26 -19 -53 c-18 -50 -23 -56 -73 -77 -29 -13 -65 -36 -80
-50 -31 -29 -65 -120 -51 -134 15 -15 83 11 124 48 l40 36 -7 -54 c-3 -31 -13
-58 -21 -64 -9 -5 -36 -23 -62 -40 -54 -36 -79 -75 -88 -140 l-6 -48 32 6 c42
9 78 38 115 90 l29 42 -7 -49 c-3 -27 -6 -64 -6 -82 0 -29 -6 -36 -37 -53 -49
-25 -88 -66 -107 -113 -20 -47 -21 -98 -2 -98 30 0 110 66 134 110 13 25 21
37 18 27 -3 -10 -6 -52 -6 -92 0 -69 -1 -73 -25 -79 -63 -16 -135 -118 -135
-193 0 -58 105 0 144 80 16 32 16 32 16 -50 l0 -82 -32 -17 c-58 -29 -98 -75
-114 -131 -8 -29 -13 -57 -9 -63 20 -32 96 17 137 88 l28 47 0 -141 c0 -100
-4 -154 -15 -184 -22 -62 -19 -152 6 -201 11 -22 25 -39 32 -36 7 2 23 22 36
46 27 50 31 136 8 191 -11 25 -13 56 -10 107 l6 71 22 -41 c21 -40 55 -67 103
-82 20 -6 22 -3 22 30 0 72 -44 141 -112 176 l-36 19 -4 82 c-2 46 -3 84 -2
86 1 2 12 -18 24 -43 23 -47 80 -95 114 -95 17 0 18 5 13 52 -8 65 -45 119
-103 149 l-44 24 0 75 0 75 19 -30 c27 -43 72 -83 104 -90 25 -7 27 -5 27 24
0 68 -59 156 -121 182 -29 11 -29 13 -29 93 l0 81 26 -42 c21 -36 93 -93 117
-93 15 0 6 83 -12 118 -22 43 -53 73 -98 96 l-33 17 0 86 0 87 26 -52 c25 -50
82 -102 111 -102 16 0 17 51 2 105 -7 26 -30 59 -66 95 -52 52 -54 56 -47 94
3 22 12 56 19 76 l13 35 7 -40 c11 -66 26 -94 68 -130 49 -42 59 -36 65 38 5
62 -19 120 -74 177 l-34 36 31 37 c39 47 97 67 132 44 44 -29 114 -301 125
-489 7 -122 7 -123 32 -123 22 0 25 5 36 76 6 41 19 90 29 108 20 40 12 52
-14 20 -23 -28 -22 -31 -46 96 -10 50 -32 135 -49 190 -25 83 -30 115 -28 190
3 189 68 325 154 325 27 0 88 -24 88 -35 0 -3 -16 -28 -35 -56 -39 -57 -50
-100 -42 -165 6 -54 9 -59 36 -45 34 18 72 95 78 157 l6 57 17 -34 c10 -19 24
-53 31 -77 l12 -43 -40 -42 c-56 -57 -76 -101 -76 -165 0 -29 3 -55 5 -58 9
-8 71 21 91 44 10 11 26 41 36 67 l18 48 7 -73 c6 -56 4 -75 -6 -81 -83 -47
-138 -127 -138 -200 0 -22 3 -39 7 -39 3 0 26 11 49 25 33 20 50 39 73 88 l30
62 1 -92 0 -91 -44 -26 c-79 -46 -122 -119 -114 -195 l3 -33 49 33 c31 21 59
51 73 78 l23 44 0 -80 0 -79 -38 -21 c-70 -40 -112 -106 -112 -178 0 -33 2
-36 23 -29 37 12 68 36 98 76 l27 39 4 -71 3 -71 -51 -29 c-68 -38 -96 -79
-102 -147 -2 -29 -2 -53 2 -53 4 0 21 6 39 14 39 16 71 49 97 102 l19 39 -1
-88 -1 -88 -36 -19 c-47 -24 -86 -66 -105 -112 -20 -47 -21 -108 -2 -108 26 0
81 46 114 94 l32 48 0 -75 c0 -44 -6 -89 -15 -110 -21 -52 -19 -129 6 -188 12
-27 27 -48 33 -46 6 1 21 23 34 47 26 52 29 133 7 187 -16 39 -18 85 -8 210
l6 82 28 -38 c31 -43 79 -81 103 -81 23 0 21 64 -3 117 -19 40 -80 95 -122
108 -17 6 -19 16 -19 93 l1 87 19 -36 c24 -46 94 -109 121 -109 20 0 21 4 17
50 -6 64 -45 120 -104 151 -40 22 -44 28 -44 60 0 20 -3 58 -6 85 l-6 49 33
-50 c34 -50 89 -95 117 -95 11 0 14 10 10 50 -6 62 -42 116 -103 154 l-45 29
0 76 1 76 20 -38 c18 -34 97 -97 122 -97 5 0 7 24 5 54 -6 71 -42 126 -101
155 -51 25 -57 39 -56 126 l0 60 18 -35 c25 -45 57 -75 104 -95 40 -17 41 -16
37 40 -4 66 -63 141 -136 171 -25 10 -33 21 -38 49 -4 20 -10 44 -13 53 -3 9
8 2 25 -16 51 -54 142 -82 142 -44 -1 32 -37 98 -69 125 -29 24 -86 47 -118
47 -7 0 -24 23 -38 50 l-26 51 41 -27 c43 -29 124 -42 149 -26 11 8 8 18 -15
53 -40 60 -79 79 -176 89 -46 4 -101 15 -123 25 -38 16 -39 18 -20 32 11 8 45
27 75 42 49 23 66 26 165 26 97 -1 118 -4 177 -29 108 -45 194 -135 212 -221
6 -26 2 -33 -23 -48 -43 -25 -89 -82 -100 -124 -15 -53 -14 -93 2 -93 30 0 95
60 119 108 l25 51 7 -52 c12 -102 10 -111 -31 -134 -21 -12 -50 -34 -65 -50
-52 -54 -79 -163 -40 -163 33 0 81 40 111 92 l31 53 0 -82 0 -83 -38 -19 c-71
-36 -122 -115 -122 -188 0 -29 22 -30 65 -3 37 23 60 55 80 108 13 36 14 34
14 -54 l1 -91 -49 -31 c-65 -40 -100 -93 -103 -157 -3 -45 -1 -50 17 -47 11 2
31 11 45 21 22 16 37 34 77 97 10 16 12 4 12 -63 l1 -82 -49 -26 c-56 -31 -85
-65 -100 -121 -12 -41 -15 -94 -6 -94 4 0 18 6 33 14 36 19 75 62 100 111 l21
40 1 -87 c0 -86 0 -88 -29 -102 -43 -22 -90 -65 -105 -95 -8 -14 -17 -50 -21
-78 -6 -43 -4 -53 8 -53 28 0 97 61 121 107 l25 48 1 -82 0 -81 -44 -26 c-75
-44 -116 -110 -116 -188 0 -32 9 -34 48 -14 37 20 77 64 95 106 15 35 15 35
16 -52 l1 -86 -54 -30 c-65 -37 -97 -86 -104 -155 l-5 -50 28 7 c45 11 75 37
106 90 l29 51 0 -82 0 -81 -49 -30 c-61 -38 -93 -89 -99 -159 -5 -58 0 -63 46
-39 35 18 57 43 82 92 l19 39 0 -80 c1 -45 -6 -97 -14 -120 -8 -22 -14 -56
-14 -75 0 -45 40 -145 59 -145 22 0 51 59 57 117 4 37 0 69 -13 108 -16 47
-18 75 -14 190 3 74 7 127 8 118 5 -42 120 -137 145 -121 17 10 0 93 -27 133
-15 23 -48 52 -76 68 l-50 27 0 90 0 90 24 -51 c25 -53 63 -88 110 -100 l28
-7 -7 44 c-12 77 -45 131 -103 164 l-51 30 -1 80 0 80 30 -51 c21 -37 41 -57
71 -72 23 -12 46 -19 51 -16 16 10 8 60 -18 112 -20 40 -38 59 -80 84 l-53 33
0 85 -1 85 19 -40 c22 -48 54 -79 104 -100 l37 -15 0 35 c0 73 -50 149 -122
186 l-38 19 0 83 0 82 19 -40 c22 -48 54 -79 104 -100 l37 -15 0 27 c0 80 -47
154 -119 189 l-41 19 0 85 0 85 21 -43 c24 -48 69 -87 113 -98 l29 -7 -5 51
c-7 70 -45 125 -108 157 l-50 25 0 88 0 87 21 -45 c25 -56 44 -77 92 -101 33
-18 38 -18 43 -4 23 59 -34 165 -110 204 l-46 24 0 86 c1 81 2 84 14 55 24
-55 107 -134 141 -134 9 0 5 66 -6 101 -6 19 -25 52 -42 73 l-31 39 49 -6
c124 -17 217 -123 254 -288 8 -36 7 -43 -12 -57 -90 -71 -134 -143 -125 -204
4 -30 20 -32 58 -5 41 27 79 80 87 122 6 25 7 27 14 10 4 -11 8 -50 8 -87 l1
-66 -45 -27 c-59 -34 -97 -91 -103 -157 l-5 -51 29 7 c38 10 80 50 109 106
l24 45 1 -88 0 -88 -31 -17 c-83 -45 -128 -110 -129 -185 0 -35 2 -38 23 -31
42 13 69 38 99 91 16 29 32 53 34 53 2 0 4 -39 4 -87 l0 -88 -55 -29 c-64 -33
-99 -84 -108 -153 -5 -39 -3 -43 16 -43 36 0 86 37 117 87 l30 47 0 -81 0 -81
-42 -25 c-54 -32 -83 -62 -103 -109 -17 -43 -20 -98 -5 -98 35 0 92 44 120 93
l30 52 0 -91 0 -91 -39 -18 c-70 -31 -121 -105 -121 -175 0 -34 8 -36 56 -14
33 16 92 87 96 116 1 7 4 -25 7 -72 5 -64 2 -92 -9 -115 -23 -47 -20 -162 6
-205 11 -19 26 -35 33 -35 48 0 78 144 47 219 -22 52 -24 370 -2 321 18 -39
62 -80 108 -99 44 -19 52 -11 42 41 -13 74 -59 129 -131 160 l-33 13 0 83 c1
81 1 82 17 52 23 -45 54 -76 90 -91 47 -20 53 -18 53 20 0 72 -47 138 -121
171 l-39 18 1 86 c1 86 1 86 16 51 20 -46 40 -68 85 -91 49 -25 68 -24 68 2 0
75 -63 164 -134 190 l-36 13 0 91 0 90 24 -51 c26 -55 66 -91 115 -100 29 -6
31 -5 31 23 0 16 -12 54 -27 84 -22 43 -39 61 -83 87 l-55 32 -6 68 c-3 37 -4
69 -3 71 2 2 9 -12 17 -32 19 -43 74 -86 122 -94 l38 -6 -7 39 c-15 81 -75
148 -168 186 -3 2 -10 25 -14 53 l-7 50 35 -37 c35 -38 73 -58 109 -58 24 0
26 38 3 83 -25 49 -43 65 -111 104 -46 25 -65 42 -70 61 -24 103 -101 205
-188 250 -44 23 -62 26 -147 27 l-97 0 -6 35 c-3 19 -8 47 -11 62 -5 26 -4 26
33 -12 37 -36 112 -68 132 -55 11 6 1 47 -22 91 -25 48 -63 76 -127 93 -53 15
-66 23 -98 66 -76 101 -207 164 -357 171 -52 3 -99 -1 -134 -11z"/>
<path d="M2748 3333 c-52 -56 -118 -224 -138 -353 -21 -140 -6 -313 40 -433
12 -32 44 -91 71 -132 69 -103 99 -172 116 -273 17 -97 14 -168 -12 -366 -25
-188 -4 -288 79 -379 l34 -37 -402 0 -401 1 60 32 c87 46 222 184 267 272 73
142 126 359 114 459 -4 28 -24 116 -46 196 -22 80 -44 174 -50 210 -20 130 -9
276 35 444 24 91 21 116 -11 116 -21 0 -32 -29 -59 -166 -20 -95 -27 -162 -28
-254 -1 -131 6 -169 68 -395 38 -138 39 -263 1 -390 -76 -256 -199 -399 -419
-487 l-82 -33 -220 -5 -220 -5 0 -25 0 -25 1055 0 1055 0 0 25 0 25 -306 5
-306 5 -50 34 c-27 18 -60 48 -72 67 -47 68 -63 186 -42 300 47 249 25 463
-64 607 -19 31 -51 83 -70 115 -70 112 -103 283 -84 432 15 127 35 194 90 309
46 94 54 131 31 131 -4 0 -20 -12 -34 -27z"/>
<path d="M3345 861 c-73 -34 -105 -85 -105 -171 l0 -49 -52 -3 c-50 -3 -53 -5
-56 -32 -2 -15 -1 -39 2 -52 6 -21 12 -24 56 -24 l50 0 0 -175 0 -175 70 0 70
0 0 175 0 175 58 0 c31 0 62 4 68 8 7 4 13 27 15 52 l4 45 -72 3 -73 3 0 34
c0 77 48 111 121 86 49 -17 54 -14 67 34 17 63 17 61 -32 74 -66 16 -145 13
-191 -8z"/>
<path d="M3640 810 l0 -50 65 0 65 0 0 -228 c0 -216 1 -230 23 -272 31 -62 74
-85 157 -84 76 1 144 20 136 39 -2 7 -10 32 -17 54 -10 32 -16 40 -28 35 -31
-14 -91 -16 -106 -4 -13 10 -15 57 -15 286 l0 274 -140 0 -140 0 0 -50z"/>
<path d="M390 714 c-39 -16 -75 -23 -126 -24 -159 -1 -244 -62 -244 -175 0
-50 16 -89 48 -118 l20 -19 -24 -35 c-59 -87 2 -153 140 -153 104 0 149 -28
111 -70 -14 -16 -31 -20 -81 -20 -76 0 -93 6 -105 37 -8 22 -13 24 -66 21
l-58 -3 2 -39 c6 -85 79 -120 240 -115 122 5 161 20 200 79 45 66 19 166 -52
196 -19 8 -63 15 -97 15 -86 2 -122 11 -126 32 -3 15 5 17 55 17 79 0 123 14
161 51 58 56 65 141 16 198 l-24 28 51 7 c37 5 49 11 45 21 -2 7 -8 30 -12 49
-3 20 -9 38 -13 40 -3 2 -31 -7 -61 -20z m-115 -148 c27 -20 27 -92 0 -112
-27 -20 -72 -17 -95 6 -24 24 -26 77 -3 102 19 22 71 24 98 4z"/>
<path d="M850 674 c-19 -8 -49 -29 -66 -45 l-31 -30 -7 40 -6 41 -90 0 -90 0
0 -49 c0 -49 1 -50 33 -53 l32 -3 3 -142 3 -143 -30 0 c-28 0 -30 -3 -37 -45
-3 -25 -4 -49 -1 -52 7 -6 112 -8 235 -5 l72 2 0 50 0 50 -50 0 -50 0 0 74 c0
87 7 111 50 160 43 48 58 46 62 -6 3 -42 3 -43 44 -46 25 -2 45 2 51 10 6 7
14 52 18 100 l7 88 -26 10 c-38 14 -85 12 -126 -6z"/>
<path d="M1226 675 c-60 -21 -88 -46 -121 -106 -26 -48 -30 -63 -29 -139 0
-99 18 -144 83 -203 46 -41 84 -51 176 -45 51 3 73 10 107 34 84 58 119 188
83 310 -37 128 -171 195 -299 149z m109 -101 c31 -12 49 -65 49 -147 -1 -95
-20 -130 -77 -135 -48 -4 -74 25 -83 94 -16 133 33 217 111 188z"/>
<path d="M2273 666 c-149 -70 -181 -310 -56 -428 71 -68 198 -82 297 -34 31
15 56 33 56 39 0 6 -11 27 -25 48 l-26 36 -37 -18 c-53 -27 -132 -26 -160 4
-11 12 -24 34 -27 50 l-7 27 151 0 151 0 0 68 c0 81 -22 134 -73 179 -66 57
-159 68 -244 29z m156 -112 c12 -15 21 -37 21 -50 0 -23 -3 -24 -80 -24 -44 0
-80 4 -80 9 0 21 22 67 37 79 29 22 79 15 102 -14z"/>
<path d="M4309 663 c-127 -65 -168 -258 -83 -390 34 -51 78 -81 141 -92 167
-32 283 74 283 257 0 195 -173 309 -341 225z m143 -94 c70 -38 59 -276 -14
-280 -62 -3 -84 17 -98 92 -25 134 33 230 112 188z"/>
<path d="M1590 676 c0 -4 153 -438 165 -469 4 -10 19 -18 39 -18 74 -4 116 -3
121 2 7 7 165 467 165 480 0 6 -30 9 -72 7 l-73 -3 -46 -170 -46 -170 -12 40
c-6 22 -28 99 -49 170 l-38 130 -77 3 c-42 2 -77 1 -77 -2z"/>
<path d="M4690 663 c0 -48 75 -460 86 -472 9 -10 28 -12 78 -6 36 3 66 7 67 8
0 1 10 58 23 127 l22 125 18 -110 c27 -160 23 -155 98 -155 35 0 68 4 74 8 9
5 81 398 88 472 1 12 -13 16 -61 18 -74 3 -65 20 -88 -182 -9 -77 -17 -141
-19 -143 -2 -2 -6 18 -9 44 -12 92 -27 188 -32 211 -5 21 -10 23 -68 20 l-61
-3 -22 -123 c-12 -67 -23 -125 -26 -127 -2 -2 -10 52 -17 120 -19 187 -15 179
-89 183 -54 3 -62 1 -62 -15z"/>
</g>
</svg>
